<svg xmlns="http://www.w3.org/2000/svg" xmlns:svg="http://www.w3.org/2000/svg" id="svg184" width="16" height="16" version="1.1" viewBox="0 0 16 16" xml:space="preserve"><path id="path5254" fill="#ff5f5f" d="M 15.833548,13.216774 V 3.2167742 H 13.833547 9.8335475 V 5.2167741 H 13.833547 V 11.216774 H 9.8335475 v 2 h 3.9999995 z" style="fill:#8eef97;fill-opacity:1"/><path id="path5254-3" fill="#ff5f5f" d="m 0.1858061,3.175484 v 10 h 2.000001 4.0000004 v -2 H 2.1858071 V 5.1754844 H 6.1858075 V 3.175484 H 2.1858071 Z" style="fill:#ff5f5f;fill-opacity:1"/><path style="fill:#efea8e;fill-opacity:1;stroke-width:.3;stroke-linecap:round;stroke-linejoin:round;stroke-miterlimit:3.4;paint-order:stroke fill markers" id="path6968" d="m -9.4554837,9.7858065 c -0.316036,-0.1931332 -0.4399666,-1.9041692 -0.4307264,-2.274431 0.00924,-0.3702617 0.2183637,-2.072986 0.5436399,-2.2501147 0.3252762,-0.1771286 1.8690422,0.5710624 2.1850782,0.7641955 0.316036,0.1931331 1.6860767,1.2256016 1.6768365,1.5958633 -0.00924,0.3702618 -1.4290756,1.3331068 -1.7543518,1.5102355 -0.3252761,0.1771287 -1.9044404,0.8473845 -2.2204764,0.6542514 z" transform="matrix(1.0937122,0,0,1.0937122,17.938116,-0.0119049)"/><path style="fill:#efea8e;fill-opacity:1;stroke-width:.3;stroke-linecap:round;stroke-linejoin:round;stroke-miterlimit:3.4;paint-order:stroke fill markers" id="path6968-7" d="m -9.4554837,9.7858065 c -0.316036,-0.1931332 -0.4399666,-1.9041692 -0.4307264,-2.274431 0.00924,-0.3702617 0.2183637,-2.072986 0.5436399,-2.2501147 0.3252762,-0.1771286 1.8690422,0.5710624 2.1850782,0.7641955 0.316036,0.1931331 1.6860767,1.2256016 1.6768365,1.5958633 -0.00924,0.3702618 -1.4290756,1.3331068 -1.7543518,1.5102355 -0.3252761,0.1771287 -1.9044404,0.8473845 -2.2204764,0.6542514 z" transform="matrix(1.0937122,0,0,0.49048112,15.546926,4.58667)"/><circle style="fill:#efea8e;fill-opacity:1;stroke-width:.246483;stroke-linecap:round;stroke-linejoin:round;stroke-miterlimit:3.4;paint-order:stroke fill markers" id="path7098" cx="3.161" cy="13.486" r="2.303"/><circle style="fill:#efea8e;fill-opacity:1;stroke-width:.246483;stroke-linecap:round;stroke-linejoin:round;stroke-miterlimit:3.4;paint-order:stroke fill markers" id="path7098-7" cx="12.821" cy="13.502" r="2.303"/></svg>