<svg xmlns="http://www.w3.org/2000/svg" xmlns:xlink="http://www.w3.org/1999/xlink" width="100%" height="100%" version="1.1" viewBox="0 0 32 32" xml:space="preserve" style="fill-rule:evenodd;clip-rule:evenodd;stroke-linecap:round;stroke-linejoin:round;stroke-miterlimit:1.5"><rect id="Artboard1" width="32" height="32" x="0" y="0" style="fill:none"/><g id="Artboard11"><g transform="matrix(1.03705,0,0,1.03705,-0.460588,-0.659827)"><g id="BG"><path d="M30.337,8.833C30.337,4.841 27.096,1.601 23.104,1.601L8.64,1.601C4.649,1.601 1.408,4.841 1.408,8.833L1.408,23.297C1.408,27.288 4.649,30.529 8.64,30.529L23.104,30.529C27.096,30.529 30.337,27.288 30.337,23.297L30.337,8.833Z" style="fill:none;stroke:#e18e39;stroke-width:.96px"/></g></g><g id="AnimationPlayerState"><g transform="matrix(3.01177,0,0,3.01177,-34.5681,-33.1274)"><circle cx="16.79" cy="16.312" r="3.319" style="fill:#e18e39"/></g><g><path d="M20.809,13.816L25.996,22.614L15.622,22.614L20.809,13.816Z" transform="matrix(5.89427e-17,0.963968,-1,6.1152e-17,35.4409,-4.05915)"/></g></g></g></svg>