<svg xmlns="http://www.w3.org/2000/svg" width="834" height="500" fill="none" viewBox="0 0 834 500"><g clip-path="url(#clip0_162_79)"><rect width="833.333" height="500" x=".667" fill="#80848E" rx="250"/><g clip-path="url(#clip1_162_79)"><path fill="#fff" d="M459 250C459 134.941 365.726 41.6666 250.667 41.6666C135.607 41.6666 42.3333 134.941 42.3333 250C42.3333 365.059 135.607 458.333 250.667 458.333C365.726 458.333 459 365.059 459 250Z"/><path fill="#80848E" d="M149.257 181.868L182.402 148.722L351.813 318.134L318.667 351.28L149.257 181.868Z"/><path fill="#80848E" d="M318.801 148.722L351.946 181.868L182.535 351.28L149.389 318.134L318.801 148.722Z"/></g></g><defs><clipPath id="clip0_162_79"><rect width="833.333" height="500" x=".667" fill="#fff" rx="250"/></clipPath><clipPath id="clip1_162_79"><rect width="583.333" height="416.667" fill="#fff" transform="translate(-41 41.6666)"/></clipPath></defs></svg>