{
	"asset":{
		"generator":"Khronos glTF Blender I/O v3.6.28",
		"version":"2.0"
	},
	"scene":0,
	"scenes":[
		{
			"name":"Scene",
			"nodes":[
				0,
				1,
				2,
				3
			]
		}
	],
	"nodes":[
		{
			"mesh":0,
			"name":"Carro",
			"scale":[
				2,
				0.5,
				0.75
			]
		},
		{
			"mesh":1,
			"name":"Punta",
			"scale":[
				1,
				0.5,
				1
			]
		},
		{
			"mesh":2,
			"name":"LlantaDelantera",
			"rotation":[
				0.7071068286895752,
				0,
				0,
				0.7071068286895752
			]
		},
		{
			"mesh":3,
			"name":"LlantaTraseras",
			"rotation":[
				0.7071068286895752,
				0,
				0,
				0.7071068286895752
			]
		}
	],
	"materials":[
		{
			"doubleSided":true,
			"name":"Material",
			"pbrMetallicRoughness":{
				"baseColorFactor":[
					0.800000011920929,
					0.800000011920929,
					0.800000011920929,
					1
				],
				"metallicFactor":0,
				"roughnessFactor":0.5
			}
		}
	],
	"meshes":[
		{
			"name":"Cube",
			"primitives":[
				{
					"attributes":{
						"POSITION":0,
						"NORMAL":1,
						"TEXCOORD_0":2
					},
					"indices":3,
					"material":0
				},
				{
					"attributes":{
						"POSITION":4,
						"NORMAL":5,
						"TEXCOORD_0":6
					},
					"indices":7,
					"material":0
				}
			]
		},
		{
			"name":"Cube.001",
			"primitives":[
				{
					"attributes":{
						"POSITION":8,
						"NORMAL":9,
						"TEXCOORD_0":10
					},
					"indices":11
				}
			]
		},
		{
			"name":"Cylinder.005",
			"primitives":[
				{
					"attributes":{
						"POSITION":12,
						"NORMAL":13,
						"TEXCOORD_0":14
					},
					"indices":15
				}
			]
		},
		{
			"name":"Cylinder.006",
			"primitives":[
				{
					"attributes":{
						"POSITION":16,
						"NORMAL":17,
						"TEXCOORD_0":18
					},
					"indices":15
				}
			]
		}
	],
	"accessors":[
		{
			"bufferView":0,
			"componentType":5126,
			"count":100,
			"max":[
				0.9193752408027649,
				2.200000047683716,
				1
			],
			"min":[
				-1,
				0,
				-1
			],
			"type":"VEC3"
		},
		{
			"bufferView":1,
			"componentType":5126,
			"count":100,
			"type":"VEC3"
		},
		{
			"bufferView":2,
			"componentType":5126,
			"count":100,
			"type":"VEC2"
		},
		{
			"bufferView":3,
			"componentType":5123,
			"count":240,
			"type":"SCALAR"
		},
		{
			"bufferView":4,
			"componentType":5126,
			"count":164,
			"max":[
				0.7437319755554199,
				1,
				1
			],
			"min":[
				-0.8437319993972778,
				0,
				-1
			],
			"type":"VEC3"
		},
		{
			"bufferView":5,
			"componentType":5126,
			"count":164,
			"type":"VEC3"
		},
		{
			"bufferView":6,
			"componentType":5126,
			"count":164,
			"type":"VEC2"
		},
		{
			"bufferView":7,
			"componentType":5123,
			"count":276,
			"type":"SCALAR"
		},
		{
			"bufferView":8,
			"componentType":5126,
			"count":20,
			"max":[
				-2,
				1.7738218307495117,
				0.8999999761581421
			],
			"min":[
				-3,
				0.07382190227508545,
				-0.8999999761581421
			],
			"type":"VEC3"
		},
		{
			"bufferView":9,
			"componentType":5126,
			"count":20,
			"type":"VEC3"
		},
		{
			"bufferView":10,
			"componentType":5126,
			"count":20,
			"type":"VEC2"
		},
		{
			"bufferView":11,
			"componentType":5123,
			"count":24,
			"type":"SCALAR"
		},
		{
			"bufferView":12,
			"componentType":5126,
			"count":168,
			"max":[
				-0.8100289106369019,
				0.8999999761581421,
				0.40000006556510925
			],
			"min":[
				-1.5899711847305298,
				-0.9000000357627869,
				-0.40000003576278687
			],
			"type":"VEC3"
		},
		{
			"bufferView":13,
			"componentType":5126,
			"count":168,
			"type":"VEC3"
		},
		{
			"bufferView":14,
			"componentType":5126,
			"count":168,
			"type":"VEC2"
		},
		{
			"bufferView":15,
			"componentType":5123,
			"count":312,
			"type":"SCALAR"
		},
		{
			"bufferView":16,
			"componentType":5126,
			"count":168,
			"max":[
				1.389971137046814,
				0.8999999761581421,
				0.40000006556510925
			],
			"min":[
				0.610028862953186,
				-0.9000000357627869,
				-0.40000003576278687
			],
			"type":"VEC3"
		},
		{
			"bufferView":17,
			"componentType":5126,
			"count":168,
			"type":"VEC3"
		},
		{
			"bufferView":18,
			"componentType":5126,
			"count":168,
			"type":"VEC2"
		}
	],
	"bufferViews":[
		{
			"buffer":0,
			"byteLength":1200,
			"byteOffset":0,
			"target":34962
		},
		{
			"buffer":0,
			"byteLength":1200,
			"byteOffset":1200,
			"target":34962
		},
		{
			"buffer":0,
			"byteLength":800,
			"byteOffset":2400,
			"target":34962
		},
		{
			"buffer":0,
			"byteLength":480,
			"byteOffset":3200,
			"target":34963
		},
		{
			"buffer":0,
			"byteLength":1968,
			"byteOffset":3680,
			"target":34962
		},
		{
			"buffer":0,
			"byteLength":1968,
			"byteOffset":5648,
			"target":34962
		},
		{
			"buffer":0,
			"byteLength":1312,
			"byteOffset":7616,
			"target":34962
		},
		{
			"buffer":0,
			"byteLength":552,
			"byteOffset":8928,
			"target":34963
		},
		{
			"buffer":0,
			"byteLength":240,
			"byteOffset":9480,
			"target":34962
		},
		{
			"buffer":0,
			"byteLength":240,
			"byteOffset":9720,
			"target":34962
		},
		{
			"buffer":0,
			"byteLength":160,
			"byteOffset":9960,
			"target":34962
		},
		{
			"buffer":0,
			"byteLength":48,
			"byteOffset":10120,
			"target":34963
		},
		{
			"buffer":0,
			"byteLength":2016,
			"byteOffset":10168,
			"target":34962
		},
		{
			"buffer":0,
			"byteLength":2016,
			"byteOffset":12184,
			"target":34962
		},
		{
			"buffer":0,
			"byteLength":1344,
			"byteOffset":14200,
			"target":34962
		},
		{
			"buffer":0,
			"byteLength":624,
			"byteOffset":15544,
			"target":34963
		},
		{
			"buffer":0,
			"byteLength":2016,
			"byteOffset":16168,
			"target":34962
		},
		{
			"buffer":0,
			"byteLength":2016,
			"byteOffset":18184,
			"target":34962
		},
		{
			"buffer":0,
			"byteLength":1344,
			"byteOffset":20200,
			"target":34962
		}
	],
	"buffers":[
		{
			"byteLength":21544,
			"uri":"data:application/octet-stream;base64,"
		}
	]
}
